<svg width="318" height="745" viewBox="0 0 318 745" fill="none" xmlns="http://www.w3.org/2000/svg">
<path fill-rule="evenodd" clip-rule="evenodd" d="M187 -1.12003L203.494 -1.12003L204.09 -0.454272C218.467 15.6003 231.128 28.2888 242.418 36.9534C253.748 45.6492 263.429 50.08 271.88 50.08C277.529 50.08 281.792 48.5389 284.625 45.929C287.436 43.3394 289.08 39.4765 289.08 34.32C289.08 26.5726 284.047 19.8806 277.58 14.0448L276.017 12.6344L291.68 -3.02863L293.093 -1.69405C304.876 9.43442 311.64 20.4861 311.64 37.36C311.64 48.9937 307.893 58.8443 301.112 65.7965C294.325 72.7538 284.663 76.64 273.16 76.64C261.9 76.64 250.398 71.9849 239.157 64.7411C229.293 58.385 219.506 49.9542 210.096 40.6651C210.514 45.4286 210.84 50.5499 210.84 54.48L210.84 82.24L187 82.24L187 -1.12003ZM207.885 38.4594C207.779 37.3579 207.669 36.2909 207.56 35.28C208.306 36.0432 209.055 36.8017 209.806 37.5547C230.306 58.1129 252.478 74.64 273.16 74.64C295.24 74.64 309.64 59.76 309.64 37.36C309.64 21.2 303.24 10.64 291.72 -0.240029L278.92 12.56C279.415 13.0066 279.905 13.4606 280.387 13.9219C286.293 19.5747 291.08 26.3319 291.08 34.32C291.08 45.52 283.88 52.08 271.88 52.08C253.64 52.08 231.4 33.04 202.6 0.879967L189 0.879967L189 80.24L208.84 80.24L208.84 54.48C208.84 49.969 208.4 43.8077 207.885 38.4594ZM249.96 101.819L307.4 105.019L307.4 168.379L287.72 168.379L287.72 125.339L262.6 123.099C262.941 123.805 263.256 124.501 263.545 125.191C265.155 129.035 265.96 132.727 265.96 137.339C265.96 157.179 254.12 173.819 228.36 173.819C201.96 173.819 186.76 154.299 186.76 132.379C186.76 113.659 194.12 101.179 202.92 92.3787L217.96 103.259C217.491 103.739 217.029 104.227 216.573 104.724C210.651 111.181 205.96 119.087 205.96 129.339C205.96 141.659 213.8 150.299 227.72 150.299C241.48 150.299 249.16 142.299 249.16 130.299C249.16 123.259 247.4 119.419 242.92 112.539L249.96 101.819ZM265.782 125.39C267.225 129.12 267.96 132.826 267.96 137.339C267.96 147.643 264.883 157.291 258.284 164.381C251.66 171.498 241.692 175.819 228.36 175.819C200.725 175.819 184.76 155.268 184.76 132.379C184.76 113.049 192.391 100.079 201.506 90.9645L202.711 89.7592L221.011 102.997L219.391 104.656C213.013 111.189 207.96 119.034 207.96 129.339C207.96 135.071 209.776 139.767 213.034 143.025C216.288 146.279 221.181 148.299 227.72 148.299C234.215 148.299 239.032 146.417 242.214 143.357C245.389 140.304 247.16 135.864 247.16 130.299C247.16 126.966 246.747 124.489 245.845 122.053C244.926 119.574 243.471 117.049 241.244 113.63L240.53 112.534L248.921 99.7577L309.4 103.127L309.4 170.379L285.72 170.379L285.72 127.168L265.782 125.39ZM187 194.997L309.4 194.997L309.4 222.677L262.84 222.677L262.84 263.477L309.4 263.477L309.4 290.997L187 290.997L187 263.477L238.2 263.477L238.2 222.677L187 222.677L187 194.997ZM307.4 220.677L260.84 220.677L260.84 265.477L307.4 265.477L307.4 288.997L189 288.997L189 265.477L240.2 265.477L240.2 220.677L189 220.677L189 196.997L307.4 196.997L307.4 220.677ZM187 308.091L202.259 308.091L258.04 346.297L258.04 312.571L280.6 312.571L280.6 381.531L265.339 381.531L209.56 343.174L209.56 382.811L187 382.811L187 308.091ZM207.56 339.371L265.96 379.531L278.6 379.531L278.6 314.571L260.04 314.571L260.04 350.091L201.64 310.091L189 310.091L189 380.811L207.56 380.811L207.56 339.371ZM254.161 402.141L267.878 395.068L268.823 396.749C271.623 401.726 274.524 405.288 277.868 407.632C280.673 409.599 283.887 410.778 287.808 411.136C288.038 403.551 293.352 396.85 302.12 396.85C306.638 396.85 310.522 398.319 313.289 400.991C316.06 403.668 317.56 407.407 317.56 411.65C317.56 417.297 315.279 421.806 310.992 424.825C306.805 427.774 300.898 429.17 293.8 429.17C285.222 429.17 277.632 427.083 271.107 422.825C264.592 418.573 259.258 412.235 255.055 403.911L254.161 402.141ZM289.805 411.247C289.802 411.381 289.8 411.515 289.8 411.65C289.8 412.13 289.8 412.77 289.96 413.25C289.252 413.239 288.562 413.206 287.889 413.151C278.524 412.38 272.454 407.284 267.08 397.73C267.08 397.73 267.08 397.73 267.08 397.73L256.84 403.01C257.008 403.343 257.179 403.673 257.351 404C257.489 404.263 257.628 404.523 257.769 404.781C265.923 419.755 277.934 427.17 293.8 427.17C307.56 427.17 315.56 421.73 315.56 411.65C315.56 404.13 310.28 398.85 302.12 398.85C294.59 398.85 289.983 404.54 289.805 411.247ZM243.994 479.752L243.991 479.762C241.754 485.673 239.051 492.224 234.672 497.283C230.205 502.444 224.028 506.014 215.08 506.014C206.686 506.014 199.039 502.701 193.519 496.232C188.017 489.785 184.76 480.365 184.76 468.334C184.76 455.827 190.23 442.101 197.866 432.971L199.066 431.536L216.968 444.574L215.697 446.204C209.606 454.012 206.36 461.267 206.36 468.974C206.36 473.207 207.273 475.943 208.555 477.581C209.78 479.146 211.519 479.934 213.8 479.934C216.054 479.934 217.974 478.434 219.936 475.099C221.601 472.271 223.011 468.613 224.555 464.609C224.823 463.914 225.095 463.209 225.374 462.495C227.553 456.765 230.454 450.371 234.816 445.395C239.236 440.353 245.193 436.734 253.32 436.734C261.982 436.734 269.427 440.269 274.673 446.529C279.896 452.762 282.84 461.569 282.84 472.014C282.84 485.732 277.138 496.068 271.404 503.768L270.212 505.369L252.806 492.461L253.922 490.867C258.344 484.548 261.24 478.735 261.24 472.654C261.24 468.912 260.413 466.446 259.26 464.959C258.159 463.54 256.611 462.814 254.6 462.814C252.445 462.814 250.725 464.173 248.972 467.358C247.595 469.86 246.442 473.037 245.142 476.62C244.774 477.633 244.394 478.68 243.994 479.752ZM227.24 463.214C231.56 451.854 238.44 438.734 253.32 438.734C269.48 438.734 280.84 451.854 280.84 472.014C280.84 484.213 276.137 493.646 270.975 500.955C270.652 501.413 270.327 501.862 270.001 502.303C269.934 502.394 269.867 502.484 269.8 502.574L255.56 492.014C260.04 485.614 263.24 479.374 263.24 472.654C263.24 464.654 259.72 460.814 254.6 460.814C248.747 460.814 246.206 467.82 243.225 476.035C242.866 477.027 242.499 478.037 242.12 479.054C237.64 490.894 231.72 504.014 215.08 504.014C199.4 504.014 186.76 491.694 186.76 468.334C186.76 456.334 192.04 443.054 199.4 434.254L214.12 444.974C213.705 445.506 213.301 446.037 212.911 446.567C207.427 453.999 204.36 461.207 204.36 468.974C204.36 477.934 208.2 481.934 213.8 481.934C220.024 481.934 223.091 473.973 226.434 465.298C226.7 464.607 226.968 463.911 227.24 463.214ZM89.2901 31.7L83.3101 45.35C78.5001 56.4 72.1301 65.11 57.8301 65.11C42.8801 65.11 31.1801 52.76 31.1801 33.26C31.1801 19.74 36.77 8.29996 45.3501 0.23996L52.7601 6.73996C52.2708 7.19431 51.7926 7.66217 51.3264 8.14274C44.8552 14.8123 40.6701 23.9315 40.6701 33.39C40.6701 46.39 47.3 54.19 57.05 54.19C67.404 54.19 70.5423 47.1032 74.5466 38.0608L80.7101 24.16C84.4801 15.45 90.9801 4.91996 105.02 4.91996C119.45 4.91996 129.85 17.27 129.85 34.3C129.85 45.61 124.91 55.49 118.15 61.86L111.26 56.14C111.722 55.6561 112.171 55.162 112.605 54.6575C117.31 49.1973 120.36 42.5112 120.36 34.3C120.36 23.12 114.64 15.84 105.8 15.84C96.0869 15.84 92.4377 24.3553 89.3254 31.6174L89.2901 31.7ZM91.1252 32.4952L91.122 32.5025L85.1439 46.1482C82.7018 51.7583 79.7671 57.0163 75.4617 60.8648C71.0897 64.7729 65.4384 67.11 57.8301 67.11C41.5183 67.11 29.1801 53.5885 29.1801 33.26C29.1801 19.1594 35.0195 7.20036 43.9807 -1.21774L45.304 -2.46085L55.7448 6.69771L54.121 8.20555C47.1971 14.6348 42.6701 23.8725 42.6701 33.39C42.6701 39.5696 44.2465 44.2846 46.7621 47.4113C49.2437 50.4957 52.7563 52.19 57.05 52.19C61.6864 52.19 64.5172 50.6413 66.7149 48.1534C69.0511 45.5086 70.7166 41.7698 72.7714 37.1301L78.8746 23.3655C78.8762 23.3618 78.8778 23.3581 78.8794 23.3544C82.6978 14.5363 89.6804 2.91996 105.02 2.91996C120.859 2.91996 131.85 16.4962 131.85 34.3C131.85 46.1916 126.66 56.5892 119.522 63.3155L118.234 64.529L108.333 56.3096L109.813 54.759C114.986 49.3397 118.36 42.6648 118.36 34.3C118.36 29.0301 117.011 24.8906 114.824 22.1152C112.673 19.3856 109.616 17.84 105.8 17.84C101.635 17.84 98.8188 19.6234 96.602 22.3122C94.2993 25.1051 92.7148 28.7862 91.1284 32.4878L91.1252 32.4952ZM0.840054 81.0266L105.2 81.0266L105.2 93.5022L98.4461 94.3464C103.031 100.492 106.89 107.893 106.89 115.787C106.89 125.463 103.125 133.061 96.3636 138.181C89.6767 143.244 80.2593 145.737 69.1401 145.737C44.2569 145.737 29.18 130.664 29.18 113.057C29.18 107.195 31.4787 101.193 35.4573 95.3813L27.0409 95.5566L0.840053 95.5566L0.840054 81.0266ZM39.5001 93.2966C38.9562 93.9731 38.4368 94.6509 37.9424 95.3295C33.5911 101.302 31.18 107.337 31.18 113.057C31.18 129.307 45.0901 143.737 69.1401 143.737C90.8501 143.737 104.89 133.987 104.89 115.787C104.89 108.136 100.933 100.815 96.1522 94.6332C95.7462 94.1082 95.3343 93.5915 94.9184 93.0834C94.9056 93.0678 94.8928 93.0522 94.8801 93.0366L94.8801 92.7766L103.2 91.7366L103.2 83.0266L2.84005 83.0266L2.84005 93.5566L27.02 93.5566L39.5001 93.2966ZM48.7746 95.5566C43.8705 101.758 42.1501 107.529 42.15 111.627C42.15 117.001 44.5823 121.69 49.1038 125.092C53.6625 128.522 60.4214 130.687 69.0101 130.687C76.8365 130.687 83.1069 129.34 87.3639 126.546C91.4831 123.842 93.9201 119.655 93.9201 113.317C93.9201 108.017 91.0309 102.442 85.0085 95.5566L48.7746 95.5566ZM47.8201 93.5566C42.2301 100.317 40.1501 106.817 40.15 111.627C40.15 123.717 51.2001 132.687 69.0101 132.687C85.0001 132.687 95.9201 127.227 95.9201 113.317C95.9201 107.077 92.4101 100.837 85.9101 93.5566L47.8201 93.5566ZM33.0001 201.545L41.4501 200.635L41.4501 200.115C41.4286 200.089 41.4071 200.063 41.3856 200.037C41.0337 199.61 40.6853 199.179 40.3416 198.743C35.2549 192.29 31.18 184.834 31.18 176.585C31.18 165.015 38.2001 156.045 51.0701 156.045C66.4101 156.045 73.9501 169.435 77.3301 199.595C86.8201 199.725 96.0501 196.865 96.0501 184.775C96.0501 177.162 92.7788 170.287 89.4688 165.007C89.1049 164.427 88.7406 163.866 88.3801 163.325L95.7901 159.165C99.8201 165.275 104.89 175.025 104.89 186.335C104.89 203.495 93.3201 210.255 76.55 210.255L33.0001 210.255L33.0001 201.545ZM79.1098 197.582C83.0228 197.464 86.5593 196.735 89.1796 195.077C92.0251 193.277 94.05 190.22 94.05 184.775C94.05 176.932 90.2957 169.804 86.716 164.434L85.5183 162.638L96.4345 156.51L97.4596 158.064C101.576 164.305 106.89 174.451 106.89 186.335C106.89 195.408 103.803 202.03 98.2277 206.316C92.7467 210.529 85.1536 212.255 76.55 212.255L31.0001 212.255L31.0001 199.749L38.0069 198.994C33.145 192.599 29.18 185.048 29.18 176.585C29.18 170.405 31.0575 164.756 34.821 160.629C38.6081 156.476 44.1421 154.045 51.0701 154.045C55.2075 154.045 58.918 154.952 62.1882 156.887C65.4517 158.819 68.1591 161.706 70.4049 165.489C74.6795 172.69 77.3981 183.343 79.1098 197.582ZM44.1408 171.459C42.6478 173.299 41.8901 176.003 41.8901 179.315C41.8901 185.522 44.6879 190.887 50.5428 197.595L67.8035 197.595C66.4357 186.507 64.3558 179.236 61.697 174.724C60.2996 172.353 58.7794 170.809 57.1761 169.849C55.5819 168.894 53.7872 168.445 51.7201 168.445C47.9111 168.445 45.5754 169.69 44.1408 171.459ZM69.8185 197.595C66.9834 174.316 60.9506 166.445 51.7201 166.445C43.1401 166.445 39.8901 172.165 39.8901 179.315C39.8901 186.465 43.27 192.445 49.6401 199.595L70.0501 199.595C69.9754 198.916 69.8982 198.249 69.8185 197.595ZM39.7902 285.631L38.6449 284.322C32.9182 277.777 29.18 269.394 29.18 260.255C29.18 250.52 32.7559 241.814 39.4866 235.553C46.2107 229.298 55.9265 225.625 67.9701 225.625C92.42 225.625 106.89 242.067 106.89 261.035C106.89 270.907 102.693 277.868 98.0427 282.928L96.7963 284.285L86.62 276.37L88.0681 274.772C91.6721 270.795 94.05 266.576 94.05 261.555C94.05 255.538 91.5016 250.378 87.026 246.685C82.5258 242.972 75.9828 240.675 67.9701 240.675C59.9995 240.675 53.5234 242.854 49.082 246.467C44.6753 250.051 42.15 255.135 42.15 261.295C42.15 267.28 44.97 272.678 48.7972 276.999L50.3315 278.731L39.7902 285.631ZM40.15 283.005L47.3 278.325C46.8576 277.826 46.4261 277.31 46.0085 276.78C42.6225 272.481 40.15 267.197 40.15 261.295C40.15 247.775 51.33 238.675 67.9701 238.675C84.74 238.675 96.0501 248.295 96.0501 261.555C96.0501 266.59 93.9346 270.82 90.8566 274.598C90.4379 275.112 90.0015 275.617 89.5501 276.115L96.5701 281.575C100.99 276.765 104.89 270.265 104.89 261.035C104.89 243.225 91.37 227.625 67.9701 227.625C44.7001 227.625 31.18 241.795 31.18 260.255C31.18 268.835 34.6901 276.765 40.15 283.005ZM37.6647 349.144L36.6548 347.596C32.6131 341.398 29.18 333.742 29.18 323.623C29.18 313.826 32.7852 304.937 39.5154 298.501C46.2461 292.066 55.9643 288.213 67.97 288.213C91.7854 288.213 106.89 304.287 106.89 321.543C106.89 330.896 103.532 338.445 97.3313 343.619C91.1784 348.752 82.449 351.363 72 351.363C69.6527 351.363 67.206 351.089 65.3472 350.823L63.6301 350.578L63.6301 302.888C57.2275 303.525 51.979 305.817 48.2517 309.264C44.1474 313.059 41.7601 318.368 41.7601 324.793C41.7601 331.335 43.802 336.542 47.1377 341.484L48.3676 343.306L37.6647 349.144ZM63.6301 300.879C64.2867 300.817 64.9535 300.772 65.6301 300.743L65.6301 348.843C67.4501 349.103 69.7901 349.363 72 349.363C92.28 349.363 104.89 339.223 104.89 321.543C104.89 305.553 90.8501 290.213 67.97 290.213C44.83 290.213 31.18 305.033 31.18 323.623C31.18 333.243 34.43 340.523 38.33 346.503L45.4801 342.603C45.1037 342.046 44.7423 341.483 44.397 340.916C41.5215 336.188 39.7601 331.06 39.7601 324.793C39.7601 311.491 49.2703 302.232 63.6301 300.879ZM73.43 300.613L73.43 339.873C74.1113 339.873 74.778 339.859 75.43 339.831C89.0863 339.247 96.31 332.592 96.31 321.673C96.31 311.883 88.7494 303.038 75.43 300.881C74.7771 300.776 74.1104 300.686 73.43 300.613ZM75.43 302.908L75.43 337.829C81.6113 337.553 86.1672 335.98 89.2173 333.509C92.5245 330.83 94.31 326.894 94.31 321.673C94.31 313.155 87.7919 305.023 75.43 302.908ZM89.2901 421.446L83.31 435.096C78.5 446.146 72.13 454.856 57.8301 454.856C42.88 454.856 31.18 442.506 31.18 423.006C31.18 409.486 36.77 398.046 45.35 389.986L52.7601 396.486C52.2707 396.94 51.7926 397.408 51.3263 397.889C44.8552 404.558 40.6701 413.678 40.6701 423.136C40.6701 436.136 47.3 443.936 57.05 443.936C67.404 443.936 70.5423 436.849 74.5466 427.807L80.71 413.906C84.4801 405.196 90.9801 394.666 105.02 394.666C119.45 394.666 129.85 407.016 129.85 424.046C129.85 435.356 124.91 445.236 118.15 451.606L111.26 445.886C111.722 445.402 112.171 444.908 112.605 444.404C117.31 438.943 120.36 432.257 120.36 424.046C120.36 412.866 114.64 405.586 105.8 405.586C96.0869 405.586 92.4377 414.101 89.3255 421.363L89.2901 421.446ZM85.1438 435.894L91.122 422.249L91.1252 422.241L91.1283 422.234C92.7147 418.532 94.2993 414.851 96.6019 412.058C98.8188 409.37 101.635 407.586 105.8 407.586C109.616 407.586 112.673 409.132 114.824 411.861C117.011 414.637 118.36 418.776 118.36 424.046C118.36 432.411 114.986 439.086 109.813 444.505L108.333 446.056L118.234 454.275L119.522 453.062C126.66 446.335 131.85 435.938 131.85 424.046C131.85 406.242 120.859 392.666 105.02 392.666C89.6798 392.666 82.6973 404.283 78.8789 413.102C78.8775 413.105 78.876 413.108 78.8746 413.112L72.7717 426.875C70.717 431.515 69.051 435.255 66.7149 437.899C64.5172 440.387 61.6864 441.936 57.05 441.936C52.7563 441.936 49.2437 440.242 46.7621 437.157C44.2465 434.031 42.6701 429.316 42.6701 423.136C42.6701 413.619 47.1971 404.381 54.121 397.952L55.7448 396.444L45.304 387.285L43.9807 388.528C35.0195 396.946 29.18 408.905 29.18 423.006C29.18 443.335 41.5183 456.856 57.8301 456.856C65.4384 456.856 71.0897 454.519 75.4617 450.611C79.7671 446.762 82.7018 441.504 85.1438 435.894ZM37.6647 526.244L36.6548 524.695C32.6131 518.498 29.18 510.842 29.18 500.723C29.18 490.926 32.7852 482.036 39.5154 475.601C46.246 469.165 55.9643 465.313 67.97 465.313C91.7854 465.313 106.89 481.386 106.89 498.643C106.89 507.996 103.532 515.545 97.3313 520.718C91.1784 525.852 82.449 528.463 72 528.463C69.6527 528.463 67.206 528.188 65.3472 527.923L63.63 527.677L63.63 479.988C57.2275 480.625 51.979 482.917 48.2517 486.364C44.1473 490.159 41.76 495.467 41.76 501.893C41.76 508.435 43.802 513.642 47.1377 518.584L48.3676 520.406L37.6647 526.244ZM63.63 477.978C64.2867 477.916 64.9535 477.871 65.63 477.843L65.63 525.943C67.4501 526.203 69.79 526.463 72 526.463C92.28 526.463 104.89 516.323 104.89 498.643C104.89 482.653 90.85 467.313 67.97 467.313C44.83 467.313 31.18 482.133 31.18 500.723C31.18 510.343 34.43 517.623 38.33 523.603L45.48 519.703C45.1037 519.145 44.7423 518.583 44.3969 518.015C41.5215 513.288 39.76 508.16 39.76 501.893C39.76 488.591 49.2703 479.331 63.63 477.978ZM73.43 477.713L73.43 516.973C74.1113 516.973 74.778 516.959 75.43 516.931C89.0863 516.347 96.31 509.691 96.31 498.773C96.31 488.983 88.7494 480.138 75.43 477.981C74.7771 477.875 74.1104 477.786 73.43 477.713ZM75.43 480.008L75.43 514.929C81.6113 514.652 86.1672 513.08 89.2173 510.609C92.5245 507.929 94.31 503.994 94.31 498.773C94.31 490.254 87.7919 482.123 75.43 480.008ZM31 542.12L105.2 542.12L105.2 554.675L96.0149 555.418C102.578 560.293 106.89 566.683 106.89 574.02C106.89 577.346 106.468 579.735 105.27 582.282L104.596 583.714L91.624 580.974L92.3327 578.848C93.0672 576.644 93.4 575.304 93.4 572.72C93.4 567.914 89.8821 561.408 78.2411 556.65L31 556.65L31 542.12ZM78.63 554.65C90.98 559.59 95.4 566.74 95.4 572.72C95.4 574.737 95.2061 576.107 94.8183 577.56C94.6561 578.168 94.4601 578.79 94.23 579.48L103.46 581.43C104.5 579.22 104.89 577.14 104.89 574.02C104.89 566.882 100.255 560.481 92.8814 555.671C92.0706 555.142 91.2266 554.632 90.352 554.143C90.3447 554.139 90.3374 554.134 90.3301 554.13L90.3301 553.87L103.2 552.83L103.2 544.12L33 544.12L33 554.65L78.63 554.65ZM31 591.378L105.2 591.378L105.2 605.908L31 605.908L31 591.378ZM33 603.908L33 593.378L103.2 593.378L103.2 603.908L33 603.908ZM118.789 605.409C117.103 603.658 116.28 601.277 116.28 598.708C116.28 596.136 117.106 593.777 118.807 592.054C120.514 590.325 122.914 589.428 125.69 589.428C128.316 589.428 130.639 590.353 132.306 592.063C133.968 593.768 134.84 596.112 134.84 598.708C134.84 601.301 133.97 603.667 132.323 605.4C130.667 607.142 128.342 608.118 125.69 608.118C122.888 608.118 120.487 607.172 118.789 605.409ZM37.6647 681.761L36.6548 680.213C32.6131 674.016 29.18 666.359 29.18 656.24C29.18 646.443 32.7852 637.554 39.5154 631.119C46.246 624.683 55.9643 620.83 67.97 620.83C91.7854 620.83 106.89 636.904 106.89 654.16C106.89 663.513 103.532 671.063 97.3313 676.236C91.1784 681.369 82.449 683.98 72 683.98C69.6526 683.98 67.206 683.706 65.3472 683.44L63.63 683.195L63.63 635.505C57.2275 636.142 51.9789 638.434 48.2517 641.881C44.1473 645.677 41.76 650.985 41.76 657.41C41.76 663.952 43.802 669.159 47.1377 674.101L48.3676 675.923L37.6647 681.761ZM63.63 633.496C64.2867 633.434 64.9535 633.389 65.63 633.36L65.63 681.46C67.45 681.72 69.79 681.98 72 681.98C92.28 681.98 104.89 671.84 104.89 654.16C104.89 638.17 90.85 622.83 67.97 622.83C44.83 622.83 31.18 637.65 31.18 656.24C31.18 665.86 34.43 673.14 38.33 679.12L45.48 675.22C45.1037 674.663 44.7423 674.101 44.3969 673.533C41.5215 668.805 39.76 663.678 39.76 657.41C39.76 644.109 49.2703 634.849 63.63 633.496ZM73.43 633.23L73.43 672.49C74.1113 672.49 74.778 672.476 75.43 672.448C89.0863 671.864 96.31 665.209 96.31 654.29C96.31 644.5 88.7494 635.655 75.43 633.499C74.7771 633.393 74.1104 633.303 73.43 633.23ZM75.43 635.525L75.43 670.447C81.6113 670.17 86.1672 668.597 89.2173 666.126C92.5244 663.447 94.31 659.511 94.31 654.29C94.31 645.772 87.7919 637.64 75.43 635.525ZM90.33 735.518C93.84 730.708 96.57 725.768 96.57 719.398C96.57 710.038 91.5 705.618 85.78 705.618C78.9528 705.618 76.2101 712.894 73.2517 720.741L73.17 720.958L72.9911 721.435C69.1447 731.701 65.0354 742.668 51.85 742.668C40.54 742.668 31.18 733.958 31.18 717.708C31.18 707.568 35.47 698.208 40.93 691.578L48.08 696.908C47.6572 697.431 47.2448 697.955 46.8442 698.481C42.5649 704.104 39.63 710.004 39.63 717.968C39.63 727.718 44.83 732.528 51.2 732.528C58.74 732.528 62.12 724.078 65.11 716.148C68.75 706.268 73.3 695.478 85.39 695.478C96.18 695.478 104.89 704.188 104.89 719.268C104.89 727.718 101.51 735.388 97.0905 740.717C97.0903 740.718 97.0906 740.717 97.0905 740.717L90.3311 735.519L90.33 735.518ZM75.0427 721.66L75.0615 721.61C76.5767 717.592 77.9202 714.028 79.6708 711.432C81.3679 708.916 83.2314 707.618 85.78 707.618C88.1038 707.618 90.2362 708.503 91.8122 710.312C93.4015 712.136 94.57 715.072 94.57 719.398C94.57 725.132 92.1384 729.647 88.7144 734.339L87.565 735.914L97.3988 743.479L98.6295 741.995C103.309 736.352 106.89 728.24 106.89 719.268C106.89 711.347 104.599 704.903 100.697 700.407C96.7821 695.897 91.3515 693.478 85.39 693.478C78.6216 693.478 73.9197 696.55 70.5114 700.869C67.1852 705.083 65.0453 710.539 63.2346 715.453C61.7246 719.458 60.2128 723.307 58.22 726.169C56.264 728.978 54.0675 730.528 51.2 730.528C48.5436 730.528 46.222 729.54 44.5383 727.595C42.8357 725.629 41.63 722.498 41.63 717.968C41.63 709.901 44.8401 704.096 49.6353 698.165L50.9432 696.548L40.5976 688.836L39.3862 690.307C33.692 697.221 29.18 707.017 29.18 717.708C29.18 726.215 31.6346 732.964 35.7812 737.613C39.9374 742.273 45.6604 744.668 51.85 744.668C59.244 744.668 64.1576 741.487 67.6552 736.931C70.9135 732.687 72.9637 727.212 74.8218 722.25L75.0414 721.664L75.0427 721.66ZM125.69 606.118C121.01 606.118 118.28 602.998 118.28 598.708C118.28 594.418 121.01 591.428 125.69 591.428C129.98 591.428 132.84 594.418 132.84 598.708C132.84 602.998 129.98 606.118 125.69 606.118Z" fill="url(#paint0_linear_4_342)"/>
<defs>
<linearGradient id="paint0_linear_4_342" x1="253" y1="22.275" x2="-161.937" y2="991.515" gradientUnits="userSpaceOnUse">
<stop stop-color="white"/>
<stop offset="1" stop-color="white" stop-opacity="0"/>
</linearGradient>
</defs>
</svg>
