<svg width="434" height="157" viewBox="0 0 434 157" fill="none" xmlns="http://www.w3.org/2000/svg">
<path d="M11.44 67H27.68L31.36 49.64C32.16 45.4 32.8 41.24 33.52 36.28H33.92C34.72 41.24 35.44 45.4 36.32 49.64L40.16 67H56.8L67.52 21.48H54.32L50.4 41.88C49.52 46.36 49.12 50.92 48.4 55.48H48C47.04 50.92 46.24 46.36 45.2 41.88L40.32 21.48H28L23.36 41.88C22.24 46.28 21.52 50.92 20.72 55.48H20.32C19.6 50.92 19.12 46.36 18.4 41.88L14.32 21.48H0.23999L11.44 67Z" fill="#AC8FFF"/>
<path d="M86.1394 68.12C91.1794 68.12 95.4194 65.8 99.1794 62.44H99.4994L100.539 67H112.139V41.16C112.139 26.92 105.499 20.36 93.7394 20.36C86.6194 20.36 80.1394 22.76 74.1394 26.36L79.0994 35.72C83.6594 33.16 87.4194 31.72 91.0194 31.72C95.6594 31.72 97.5794 33.88 97.8994 37.56C80.1394 39.48 72.6194 44.68 72.6194 54.28C72.6194 61.88 77.7394 68.12 86.1394 68.12ZM91.0194 57.08C88.0594 57.08 86.1394 55.8 86.1394 53.16C86.1394 49.96 89.0194 47.4 97.8994 46.2V53.48C95.8194 55.72 93.8994 57.08 91.0194 57.08Z" fill="#AC8FFF"/>
<path d="M123.135 67H137.295V36.6C140.095 33.96 142.015 32.52 145.215 32.52C148.815 32.52 150.495 34.36 150.495 40.6V67H164.735V38.84C164.735 27.48 160.495 20.36 150.575 20.36C144.415 20.36 139.775 23.48 136.015 27.16H135.695L134.735 21.48H123.135V67Z" fill="#AC8FFF"/>
<path d="M192.111 68.12C196.431 68.12 200.831 65.8 204.031 62.6H204.351L205.391 67H216.991V3.08002H202.671V18.28L203.231 25.08C200.271 22.2 197.311 20.36 192.271 20.36C182.831 20.36 173.471 29.32 173.471 44.28C173.471 59.08 180.751 68.12 192.111 68.12ZM195.871 56.44C190.991 56.44 188.111 52.76 188.111 44.04C188.111 35.64 191.711 31.96 195.631 31.96C198.031 31.96 200.511 32.68 202.671 34.68V52.6C200.751 55.56 198.591 56.44 195.871 56.44Z" fill="#AC8FFF"/>
<path d="M249.007 68.12C254.367 68.12 260.608 66.28 265.328 62.92L260.608 54.36C257.328 56.28 254.287 57.24 251.007 57.24C245.247 57.24 240.927 54.68 239.647 48.44H266.367C266.687 47.4 267.008 44.84 267.008 42.36C267.008 29.88 260.607 20.36 247.487 20.36C236.447 20.36 225.887 29.48 225.887 44.28C225.887 59.32 235.967 68.12 249.007 68.12ZM239.407 39.16C240.367 33.72 243.807 31.24 247.727 31.24C252.927 31.24 254.927 34.6 254.927 39.16H239.407Z" fill="#AC8FFF"/>
<path d="M276.104 67H290.264V41C292.664 35 296.744 32.84 300.104 32.84C302.104 32.84 303.464 33.16 305.064 33.56L307.464 21.32C306.184 20.76 304.664 20.36 301.944 20.36C297.384 20.36 292.344 23.32 288.984 29.4H288.664L287.704 21.48H276.104V67Z" fill="#AC8FFF"/>
<path d="M313.213 67H327.373V21.48H313.213V67ZM320.333 15.16C325.053 15.16 328.413 12.12 328.413 7.88002C328.413 3.56002 325.053 0.52002 320.333 0.52002C315.533 0.52002 312.173 3.56002 312.173 7.88002C312.173 12.12 315.533 15.16 320.333 15.16Z" fill="#AC8FFF"/>
<path d="M338.916 67H353.076V36.6C355.876 33.96 357.796 32.52 360.996 32.52C364.596 32.52 366.276 34.36 366.276 40.6V67H380.516V38.84C380.516 27.48 376.276 20.36 366.356 20.36C360.196 20.36 355.556 23.48 351.796 27.16H351.476L350.516 21.48H338.916V67Z" fill="#AC8FFF"/>
<path d="M407.893 86.12C423.733 86.12 433.652 79.32 433.652 69.72C433.652 61.48 427.333 58.04 416.133 58.04H408.932C404.052 58.04 402.212 57.08 402.212 55C402.212 53.48 402.612 52.76 403.652 51.8C405.652 52.36 407.493 52.6 409.013 52.6C419.093 52.6 427.173 47.96 427.173 37.32C427.173 35.16 426.613 33.08 425.893 31.8H432.932V21.48H416.212C414.132 20.76 411.653 20.36 409.013 20.36C399.173 20.36 389.973 25.8 389.973 36.92C389.973 42.2 392.933 46.44 396.133 48.68V49C393.173 51.08 391.092 54.28 391.092 57.48C391.092 61.32 392.853 63.72 395.253 65.32V65.72C391.013 67.88 388.772 70.92 388.772 74.68C388.772 82.84 397.413 86.12 407.893 86.12ZM409.013 44.04C405.733 44.04 403.253 41.64 403.253 36.92C403.253 32.28 405.733 29.88 409.013 29.88C412.373 29.88 414.772 32.28 414.772 36.92C414.772 41.64 412.373 44.04 409.013 44.04ZM410.133 77.24C404.293 77.24 400.453 75.64 400.453 72.44C400.453 70.92 401.172 69.64 402.612 68.36C404.052 68.76 405.812 68.92 409.092 68.92H413.413C417.653 68.92 420.052 69.48 420.052 72.2C420.052 75.08 415.973 77.24 410.133 77.24Z" fill="#AC8FFF"/>
<path d="M16.72 156.12C19.84 156.12 22.24 155.56 23.76 154.92L22.08 144.44C21.28 144.6 20.96 144.6 20.48 144.6C19.36 144.6 17.92 143.72 17.92 140.76V91.08H3.75999V140.2C3.75999 149.72 6.95999 156.12 16.72 156.12Z" fill="#AC8FFF"/>
<path d="M50.0825 156.12C61.6025 156.12 72.3225 147.32 72.3225 132.28C72.3225 117.16 61.6025 108.36 50.0825 108.36C38.4825 108.36 27.7625 117.16 27.7625 132.28C27.7625 147.32 38.4825 156.12 50.0825 156.12ZM50.0825 144.6C44.7225 144.6 42.3225 139.8 42.3225 132.28C42.3225 124.68 44.7225 119.88 50.0825 119.88C55.3625 119.88 57.7625 124.68 57.7625 132.28C57.7625 139.8 55.3625 144.6 50.0825 144.6Z" fill="#AC8FFF"/>
<path d="M94.3912 156.12C106.791 156.12 113.351 149.64 113.351 141.24C113.351 133 107.031 129.72 101.351 127.56C96.6312 125.88 92.4712 124.84 92.4712 122.12C92.4712 119.96 94.0712 118.84 97.2712 118.84C100.311 118.84 103.511 120.44 106.711 122.68L113.111 114.2C109.111 111.24 103.991 108.36 96.7912 108.36C86.2312 108.36 79.1912 114.2 79.1912 122.84C79.1912 130.36 85.5912 134.04 91.0312 136.2C95.6712 138.04 100.071 139.32 100.071 142.04C100.071 144.28 98.4712 145.64 94.7112 145.64C91.1112 145.64 87.3512 144.04 83.1912 140.84L76.8712 149.72C81.4312 153.56 88.4712 156.12 94.3912 156.12Z" fill="#AC8FFF"/>
<path d="M137.617 156.12C142.257 156.12 145.537 155.16 147.937 154.44L145.697 144.2C144.577 144.52 142.977 145 141.537 145C138.177 145 135.777 143 135.777 137.96V120.6H146.497V109.48H135.777V97.48H123.937L122.337 109.48L115.377 110.04V120.6H121.537V138.12C121.537 148.92 126.177 156.12 137.617 156.12Z" fill="#AC8FFF"/>
<path d="M193.684 156.12C198.484 156.12 204.244 154.68 208.644 150.76L203.204 141.4C200.884 143.24 198.164 144.6 195.284 144.6C189.684 144.6 185.604 139.8 185.604 132.28C185.604 124.68 189.524 119.88 195.764 119.88C197.764 119.88 199.524 120.6 201.604 122.36L208.244 113.24C204.804 110.28 200.484 108.36 194.964 108.36C182.244 108.36 171.044 117.16 171.044 132.28C171.044 147.32 180.884 156.12 193.684 156.12Z" fill="#AC8FFF"/>
<path d="M216.572 155H230.732V124.6C233.532 121.96 235.452 120.52 238.652 120.52C242.252 120.52 243.932 122.36 243.932 128.6V155H258.172V126.84C258.172 115.48 253.932 108.36 244.012 108.36C237.852 108.36 233.372 111.48 230.092 114.52L230.732 106.44V91.08H216.572V155Z" fill="#AC8FFF"/>
<path d="M269.229 155H283.389V109.48H269.229V155ZM276.349 103.16C281.069 103.16 284.429 100.12 284.429 95.88C284.429 91.56 281.069 88.52 276.349 88.52C271.549 88.52 268.189 91.56 268.189 95.88C268.189 100.12 271.549 103.16 276.349 103.16Z" fill="#AC8FFF"/>
<path d="M307.892 156.12C311.012 156.12 313.412 155.56 314.932 154.92L313.252 144.44C312.452 144.6 312.132 144.6 311.652 144.6C310.532 144.6 309.092 143.72 309.092 140.76V91.08H294.932V140.2C294.932 149.72 298.132 156.12 307.892 156.12Z" fill="#AC8FFF"/>
<path d="M337.814 156.12C342.134 156.12 346.534 153.8 349.734 150.6H350.054L351.094 155H362.694V91.08H348.374V106.28L348.934 113.08C345.974 110.2 343.014 108.36 337.974 108.36C328.534 108.36 319.174 117.32 319.174 132.28C319.174 147.08 326.454 156.12 337.814 156.12ZM341.574 144.44C336.694 144.44 333.814 140.76 333.814 132.04C333.814 123.64 337.414 119.96 341.334 119.96C343.734 119.96 346.214 120.68 348.374 122.68V140.6C346.454 143.56 344.294 144.44 341.574 144.44Z" fill="#AC8FFF"/>
</svg>
